<svg id="Layer_1" x="0px" y="0px" viewBox="0 400 2135.1 1835.1" xml:space="preserve" style="width: 70%; max-width: 850px; margin-top: -320px;" ><style type="text/css">
	.st0{fill:#FFFFFF;}
	.st1{opacity:0;fill:#AA7CFF;}
	.st2{opacity:0.57;fill:#E0E4E6;}
	.st3{fill:#F1B7B2;}
	.st4{fill:#A2BFFF;}
	.st5{fill:#3273FF;}
	.st6{fill:#0013CF;}
	.st7{fill:#4300A5;}
	.st8{fill:#6FCDE0;}
	.st9{fill:#232C48;}
	.st10{fill:#27304D;}
	.st11{fill:#D9A5A1;}
	.st12{fill:#0F62FE;}
	.st13{fill:#5992FF;}
	.st14{fill:#BCDCFF;}
	.st15{fill:#091C54;}
	.st16{fill:#3200CF;}
	.st17{fill:#343F60;}
	.st18{fill:#E0E1E2;}
</style><path class="st1" d="M1421.3,1880.5c27.1-1.3,53.2-6.3,77.8-14.8c31.5-11,62-29.7,73.4-66.8c9.5-30.9,4.5-70.5,12.5-102.5 c13-52.2,58.1-75,104.6-79.1c46.5-4.1,96.6,6.5,143.3,3.2c87.6-6.1,177.1-61.7,186.4-174.5c5.3-63.7-25-142.5-78.9-185.1 c-47.5-37.5-96-19.6-125.7-104.7c-16.9-48.5-12.5-97.2-1.7-138.7c10.7-41.5,27.4-79.1,34.3-123c10.1-64-2.3-141.4-37.6-208.2 c-35.3-66.8-94-120.9-151.7-134.3c-55.9-13-104.2,11.3-147.3,38.8c-43.1,27.5-85.7,59.2-138.8,62.2c-40.9,2.3-100.1-18.8-133.4-68.5 c-12.9-19.2-16.4-40.8-28.7-60.1c-18-28.4-51-52.2-76.2-62.4c-70.6-28.7-125.8,26.5-160,87.7s-63.1,134.9-124.1,155.7 C764.8,734.1,656.1,649.9,560,640c-92-9.5-168.5,57.4-184.6,161.5c-5.8,37.1-4.5,78.3-15.3,112.2c-11.1,34.8-35.8,58.5-66,67.2 c-29.1,8.3-58.5-11.5-86.8-8.4c-54.9,6-99.9,104.3-90.9,173.6c11.1,84.9,85.1,148.1,156.7,192.5c53.6,33.3,106.9,49.9,159.5,94 c37.5,31.4,72.4,73.5,91.9,122.5c14.6,36.9,19.7,75.4,32.1,112.9c33.4,100.2,124.4,183.8,203.5,186.9 c64.6,2.5,113.1-41.6,166.4-70.5C1077.3,1702.8,1255.8,1888.7,1421.3,1880.5z"></path><path class="st2" d="M251,1950.6c7.3-7.4,18.8-9.7,29.5-11.5c81.1-14.3,159.1-12,241.9-12.4c434.4-2.1,869-2,1303.4-6.3 c25.5-0.1,57.4,3.6,65.8,25.6c5.2,13.7-2.2,29.3-14.1,38.8c-11.9,9.5-27.5,14.2-42.9,17.8c-67.9,16-138.8,17.1-208.9,17.8 c-420.1,4.5-840.3,2-1260.3-7.6C346.4,2012.4,205.2,1996.7,251,1950.6z"></path><g><path class="st3" d="M695.1,1354.2c0,0,23.1,5.3,26.4,19.9c4.7,20.8-3.4,22.5-19.9,25.2c-16.5,2.7-29-20.6-29-20.6l-24.4-34.5 l22.7-19.9L695.1,1354.2z"></path><path class="st4" d="M647.5,1247.8c0.9,0.2,41.4,68.9,58.6,96.8c-4.1,6-42.4,31.7-42.4,31.7s-65.6-63.3-71.3-99.5 c-5.4-33.9-24.6-212.3-7.7-210.7C615,1068.9,637.5,1224.6,647.5,1247.8z"></path><g><g><path class="st5" d="M711.7,1386.5c6.5,0,12.4,2.4,17.6,7c21.9,19.8,23.8,74.5,23.9,76.8c0,0.8-0.6,1.5-1.3,1.5 c-0.7,0-1.4-0.6-1.4-1.4c0-0.6-2-55.7-23-74.7c-5.6-5.1-12.1-7.1-19.4-6.1c-35.8,5-31.2,85.6-31.2,86.4c0,0.8-0.5,1.5-1.3,1.5 c-0.7,0-1.4-0.5-1.4-1.3c-0.2-3.4-4.8-84.1,33.5-89.5C709.1,1386.6,710.4,1386.5,711.7,1386.5z"></path></g><polygon class="st6" points="761.3,1658.1 598.2,1627.5 628.9,1455.4 774.1,1462  "></polygon><polygon class="st7" points="790.2,1468.3 793.9,1650.3 776.9,1649.1 761.3,1658.1 774.1,1462 781.7,1468.2  "></polygon><g><path class="st5" d="M706.7,1384.9c1.4,0,2.7,0.2,4,0.4c6.4,1.1,11.8,4.4,16.1,9.9c18.2,23.3,10.7,77.5,10.4,79.7 c-0.1,0.8-0.8,1.3-1.5,1.2c-0.7-0.1-1.2-0.8-1.1-1.6c0.1-0.5,7.6-55.2-9.8-77.5c-4.6-5.9-10.7-9.1-18.1-9.3 c-36.2-1.2-45.4,79-45.5,79.8c-0.1,0.8-0.8,1.4-1.5,1.3c-0.7-0.1-1.3-0.8-1.2-1.6C658.7,1463.9,668,1383.7,706.7,1384.9z"></path></g><path class="st8" d="M741.7,1474c-0.3,2.9-3,4.9-5.8,4.6c-2.9-0.3-4.9-3-4.6-5.8c0.3-2.9,3-4.9,5.8-4.6 C740,1468.5,742.1,1471.1,741.7,1474z"></path><path class="st8" d="M659.6,1465.8c2.9,0.3,4.9,3,4.6,5.8c-0.3,2.9-3,4.9-5.8,4.6c-2.9-0.3-4.9-3-4.6-5.8 C654.1,1467.5,656.7,1465.5,659.6,1465.8z"></path></g><path class="st3" d="M295.8,1394.2c0,0,1,30.5-11.2,49.2c-12.3,18.6-31.9,0-33.8-18.4c-1.9-18.3,20.7-53.6,24.6-53.8 C279.2,1371.1,295.8,1394.2,295.8,1394.2z"></path><path class="st9" d="M578.1,942c0,0,26.4,97.6-42.7,167.8c-63.4,64.4-94-55-98-109.8c-1.7-23.2,6.1-64.1,33.8-94.7 c7.7-8.5,19.5-14.2,35.1-17.3C563.3,876.6,578.1,942,578.1,942z"></path><path class="st3" d="M389.2,1489.2c0,0-35.7,295.2-76,466c10.3,17.7,40.9-0.9,33.6-7c-8-6.6,141-407.4,151.3-492.6 C503.9,1405.8,389.2,1489.2,389.2,1489.2z"></path><path class="st10" d="M346.5,1946.2c0,0,29.7,25.8,25.8,34.4c-2.9,6.5-37.2-6.6-54.4-13.6c-5.4-2.2-8.1-8.3-6.1-13.7l5.3-14.5 L346.5,1946.2z"></path><path class="st3" d="M497.2,1502.9c0,0,43.3,287.9,48.8,463.3c14.5,14.4,38.2-5,29.5-9c-9.5-4.3,30.3-430.1,18.1-515 C586.3,1392.6,497.2,1502.9,497.2,1502.9z"></path><path class="st11" d="M494.1,954.6c0,0-11.1,94.2-30.7,113.2c-19.6,19,76.6,28.2,94.2,16.9c17.5-11.3-11.1-29.1-11.1-29.1 s-26.8-45.9-8-104.2C544.6,932.3,494.1,954.6,494.1,954.6z"></path><path class="st3" d="M526.4,904.5c12.1,0.7,24.5,8.7,27.6,20.5c5.7,21.9,18.6,62.3-8.2,87.9c-24.1,23-71.6-21.1-70.6-62.3 C475.9,920.9,503.7,903.1,526.4,904.5z"></path><path class="st12" d="M431.1,1293.6c0,0-73.5,208.6-70.3,254.7c3.2,46.1,241.6,29.5,270.2-3.4c8.9-10.3-8.9-186.5-75.3-259.7 C550.2,1289.4,431.1,1293.6,431.1,1293.6z"></path><path class="st12" d="M403.4,1063.1c0,0,23-15.2,63.5-18.4c8.9,4.1,43.9,28.1,82.2,4.7c10.2,3,18.7,6.5,25.6,9.9 c13.8,6.8,22.7,20.6,23.6,35.9c3.3,60.8,11.5,229.9-0.4,240.5c-6.5,5.3-132.6,30.4-189.1,1.8c-21.4-10.8-19.9-22.8-23.1-45.7 L403.4,1063.1z"></path><path class="st4" d="M403.8,1069.6c0,0-157.6,308.2-148.9,314.8c10,16.7,39.1,26.5,39.1,26.5s64.5-49.6,111.7-155.9 C439.2,1141.5,434.3,1054.7,403.8,1069.6z"></path><path class="st10" d="M575.2,1950.2c0,0,36.3,15.2,35.3,24.6c-0.8,7.1-37.4,5.4-55.9,4.2c-5.8-0.4-10.3-5.3-10.1-11.1l0.5-15.4 L575.2,1950.2z"></path><path class="st0" d="M563.8,979.2c0,0-40.3,8.4-67.3-14c2.6,1,7.7,39-14.6,17.4c1.1,7.6,6.4,24.3,30.3,33.4 C531.4,1023.3,559.5,1021.8,563.8,979.2z"></path><path class="st9" d="M517.8,1108.5c3.1,14.1-2.9,29.2-13.2,39.2c-10.3,10.1-24.4,15.5-38.6,17.9c-30.1,5.1-63.4-4.2-83.1-27.5 c-19.7-23.3-22.3-61-2.4-84.2c12.7-14.8,32.6-22.9,42.9-39.5c11.8-19.1,8.8-43.7,15.8-65c23.2-70.5,82.3-71,111.1-52.3 c-15.8,1.2-46,37-43.4,62.7c1.6,15.8,10.9,31.7,5.2,46.4c-5.2,13.4-20.2,21.6-23.9,35.5C481.7,1065.9,512.3,1084.1,517.8,1108.5z"></path><path class="st9" d="M557.8,919.5c3.1,3.7,1.7,41.9-59.5,65.7C481.4,969,496.7,846.3,557.8,919.5z"></path></g><g><g><path class="st3" d="M1507.8,1282.8c11,2,30.5,20.9,39.7,20.7c-8.7,93.7,2.3,137.3,13.3,148.7c6,10.4,32.3,39,10.5,45.8 c-26.8,8.5-42.6-3.6-50.6-44.9c-31.6-48.1-35.7-96.2-36.6-132.9C1483.7,1306.3,1493.6,1280.2,1507.8,1282.8z"></path></g><g><g><path class="st13" d="M1568.9,1098.7c20-3.5,40.5,1.2,47.9,25.9c12,40.2-38,57.6-62.5,182.9c3.6,9.3-57.1,14.5-72.8,2.7 c-1.7-1.3-9.1-87.1,34.2-171.1C1526.4,1118.2,1545.9,1102.7,1568.9,1098.7z"></path></g></g><g><g><path class="st14" d="M1556.7,1301.4c3.4,8.9,1.6,11.4-3.8,15.4c-5.4,4-43,31.3-69.5,24.9c0,0-15.1-20.6-10.1-38.2 C1481.6,1294.5,1535.9,1307.1,1556.7,1301.4z"></path></g></g><g><g><path class="st3" d="M1611.6,1666.5c-7.8,104.2-15.3,222.4-17.1,310.1c-16.2,16.4-44.3-12.5-34.6-17 c5.8-2.7-6.3-145.3-16.3-290.2C1566.4,1669.8,1589.1,1668.6,1611.6,1666.5z"></path></g></g><g><g><path class="st3" d="M1727.7,1638.8c3.4,0.6,6.8,1.4,10.3,2.1c0.4,106.2,2.9,233.8,11.4,329.1c-14.3,18.1-45.4-7.6-36.2-13.1 c5.9-3.6-26.8-167.4-54.2-321.4C1681.8,1636.1,1704.7,1637,1727.7,1638.8z"></path></g></g><g><g><path class="st10" d="M1713.6,1954.7l33.9-3.4l3.6,16.9c1.4,6.4-2.6,12.7-9,14.3c-20.2,5-60.5,14-62.7,6.3 C1676.4,1978.6,1713.6,1954.7,1713.6,1954.7z"></path></g></g><g><g><path class="st15" d="M1761.4,1406.8c0,0-2,507,0.1,527.4c-20.9,2.6-62.1,5.3-63.5,3.3c-63.3-289.7-65.7-533-65.7-533 C1654.9,1374.5,1761.4,1406.8,1761.4,1406.8z"></path></g></g><g><g><path class="st10" d="M1560.6,1957.5l34,0.3l1.7,17.2c0.7,6.5-4,12.4-10.5,13.2c-20.6,2.8-61.6,7.3-63-0.5 C1521,1977.2,1560.6,1957.5,1560.6,1957.5z"></path></g></g><g><g><path class="st15" d="M1678.6,1399.7c0,0-71.3,517.9-70.6,535.6c-21.1,0.9-56.7,3-57.8,0.9c-29.6-293-15.2-538.4-15.2-538.4 C1561.5,1369.9,1678.6,1399.7,1678.6,1399.7z"></path></g></g><g><g><g><path class="st11" d="M1613.4,1000.2c3.3,8.4,52.9-24.1,52.9-24.1s35.6,97,56.1,111c8.3,19.1-124.5,36.4-138.4,12.8 C1588.2,1096.1,1611.7,1071.5,1613.4,1000.2z"></path></g></g></g><g><path class="st12" d="M1601,1065.3c0,0,35.6,55.6,94.4-16.1c0,0,74,5.3,94.8,43.6c11.8,21.7,1.4,227.4-27.5,325.3 c-8.5,5.5-110,52.9-220.8,16.3c-76.8-56.5-12.5-251.5-5.3-321.2C1538.1,1098.7,1601,1065.3,1601,1065.3z"></path></g><path class="st10" d="M1745.2,1060.2c-56,279.6-37.3,380.8-37.3,380.8s-15.6,10.8-18.2,1.5c-23.5-115,37.9-387.5,37.9-387.5 S1746.7,1058.1,1745.2,1060.2z"></path><path class="st10" d="M1560.7,1088.1c-25.8,300.5,7,348.2,7,348.2s-10.3,6.4-15.4-3.3c-45.2-57.4-3.1-335.8-3.1-335.8 S1561.3,1087.9,1560.7,1088.1z"></path><path class="st16" d="M1586.8,1103.7l18.2-17.3l24.6,19c0,0-14.9,19.5-14.7,20.3c-5.3,11.4,6.6,260.8,6.6,260.8l-11.4,43.5 c0,0-24.4-16-34.1-32.7c-11.8-77.7,20.3-274.9,20.3-274.9L1586.8,1103.7z"></path><g><path class="st14" d="M1601.9,1062.1c0,0,34.4,45.4,92.5-24.2c1-0.4,22.8,11.8,22.8,11.8s-40.4,59-88.6,70.2 c0.7,0.3-21.5-29-21.5-29l-23.5,22.2c0,0-20.2-27.1-7.6-44.7C1577.3,1066.3,1601.9,1062.1,1601.9,1062.1z"></path></g><path class="st17" d="M1763,1417c0,0-1,7.6-5.9,15.6c-115.9,49.8-224,3.4-224,3.4l-4-13.7C1679.7,1456.2,1763,1417,1763,1417z"></path><g><path class="st3" d="M1769.8,1301c9.2,0.9,30-16.6,41.1-17.7c14.3-1.5,22.2,25.2,20.9,39.1c-3.6,36.5-11.2,84.1-46.2,129.8 c-11.1,40.6-27.7,51.4-53.8,41c-21.3-8.5,7.1-35,13.9-44.9C1757.5,1437.8,1771.6,1395.1,1769.8,1301z"></path></g><g><g><path class="st13" d="M1759.1,1107.8c3.9-29.1,15.1-30.5,32.9-20.8c24,12.9,41.8,34.7,47.8,57.3c24.2,91.4,1.1,177.8-0.8,178.7 c-18,8.2-78.8-14.3-73.2-22.6C1769,1172.8,1753.6,1149.4,1759.1,1107.8z"></path></g></g><g><g><path class="st14" d="M1843.5,1309.4c1.1,18.2-11.1,40.2-11.1,40.2c-27.2,0.5-59-17.7-63.5-22.8c-4.4-5.1-9.3-24.9-4-32.8 C1783.9,1304.1,1837.4,1298.8,1843.5,1309.4z"></path></g></g><g><g><g><g><path class="st3" d="M1620,913c31.7-6.8,79.4-2.6,84.3,61.9c4.9,64.4-47.9,121.3-90.1,99.9c-31.8-16.2-32.6-82.2-27.3-113.3 C1592.4,928.8,1603.5,916.6,1620,913z"></path></g></g></g><g><path class="st18" d="M1679.8,921.6c-5.1-8.9,48.2,19,19.4,94.8c-0.7,0.9-12.2-28.2-12.2-28.2s-8.9-21.4-9.3-38.6 C1677.3,932.4,1684.9,930.5,1679.8,921.6z"></path></g><g><path class="st18" d="M1609.5,918c-6.3,4-9.9,20.1-13.5,30.1c-3.6,10-10.4,25.6-10.4,25.6C1564.2,922.9,1615.8,914,1609.5,918z"></path></g><g><path class="st10" d="M1580.3,986.4c-0.6,4.8-1.2,11.3-0.4,15.6c1.3,7.1,17.2,8.9,22.1,9.3c2.5,0.2,7,0.4,9-0.3 c4.3-1.7,10.5-13.6,11.5-20.5c0.4-3-0.1-5.2-1.7-6.4l-0.6-0.3c-3-1.1-8.6-1.9-16.5-2.6c-6.1-0.5-12.3-0.8-16.5-0.9 C1583.7,980.2,1580.8,982.8,1580.3,986.4z M1584.5,987c0.2-1.4,1.3-2.3,2.6-2.3c4.1,0.1,10.3,0.4,16.3,0.9 c8.6,0.7,12.9,1.6,15,2.2c0.1,0.5,0.2,1.8-0.5,4.4c-1.8,6.5-6.6,14.1-8.3,14.8c-0.5,0.2-2.8,0.4-7.2,0.1 c-10.3-0.8-17.9-3.7-18.3-5.8C1583.5,998.3,1583.7,993.2,1584.5,987z"></path></g><g><path class="st10" d="M1632.7,986l-1.4,4.1c-5.5-2.1-10.5-1.1-10.6-1.1l-0.8-4.2C1620.1,984.6,1626.1,983.4,1632.7,986z"></path></g><g><path class="st10" d="M1692.3,983.9l-1.4,4.1c-3.9-1.4-13.5,2-18.7,4.5l-1.8-3.9C1672,987.8,1685.5,981.4,1692.3,983.9z"></path></g><g><g><g><path class="st3" d="M1697.9,989.7c2.2,8.1-8.6,29.3-8.6,29.3l-10.5-28.3C1678.8,990.6,1694.3,976.5,1697.9,989.7z"></path></g></g></g><g><path class="st10" d="M1630.2,990.1c-0.6,6.5,4.9,20.7,8.3,23.4c1.8,1.4,6.2,2,9.6,2.3c2.2,0.2,21.6,1.5,24.2-5.8 c1.3-3.7,2.2-9.9,2.8-14.3c0.3-2.2-0.3-4.4-1.7-6.1c-1.3-1.7-3.2-2.8-5.3-3c-2.2-0.2-5-0.5-7.9-0.7c-13.4-1.1-22.4-1.3-26.8-0.6 l-0.6,0.2C1631.7,986,1630.4,987.3,1630.2,990.1z M1634.5,989.5c4.2-0.6,12.9-0.3,25.3,0.7c2.9,0.2,5.7,0.5,7.9,0.7 c1,0.1,1.8,0.6,2.4,1.4c0.6,0.8,0.9,1.8,0.8,2.9c-0.7,6.1-1.6,10.7-2.5,13.3c-0.8,2.1-9.7,3.9-20,3c-5-0.4-7.1-1.2-7.4-1.5 c-1.7-1.3-6.3-11.8-6.7-18.1C1634.2,990.4,1634.4,989.8,1634.5,989.5z"></path></g></g><path class="st0" d="M1666.8,1014.8c10.7-6.9,13.8-25.3,13.5-19.6c-0.6,13.1-6.3,34.1,4.7,32.6c5-0.7,10.7-18.9,10.7-18.9 s-4.4,21.5-16.9,46.4c-22.9,27.4-61.7,33.6-82.4,11.4c-20.7-22.2-11.7-53.8-11.7-53.8C1619.5,1032.7,1656.2,1021.6,1666.8,1014.8z"></path></g></svg>