<svg id="Layer_1" data-name="Layer 1" viewBox="0 0 2448.89 1477.24"  style="width: 60%; max-width: 750px; margin-top:-100px" ><defs><style>.cls-1{opacity:0.1;}.cls-2{fill:#3490ff;}.cls-3{fill:#343f60;}.cls-4{fill:#fff;}.cls-5{fill:#d9a5a1;}.cls-6{fill:#1d2640;}.cls-7{opacity:0.25;}.cls-8{fill:#46b4ff;}.cls-9{opacity:0.11;}.cls-10{fill:#3d6fff;opacity:0.43;}.cls-11{fill:#002a57;}.cls-12{fill:#f1b7b2;}.cls-13{fill:#27304d;}.cls-14{fill:#0f62fe;}.cls-15{fill:#6998ff;}.cls-16{fill:#841aff;}.cls-17{fill:#25008c;}.cls-18{fill:#69a1ff;}.cls-19{fill:#c18cff;}.cls-20{fill:#c5afff;}.cls-21{fill:#3d5fff;}.cls-22{fill:#c3dce0;}.cls-23{fill:#8e57ff;}.cls-24{fill:#95daff;}.cls-25{fill:#d3edf2;}.cls-26{fill:#1100af;}.cls-27,.cls-28{fill:#252f4b;}.cls-28{opacity:0.52;}.cls-29{fill:#a095ff;}.cls-30{fill:#bcafff;}.cls-31{fill:#0007c1;}.cls-32{fill:#1e00c1;}.cls-33{fill:#3447ff;}.cls-34{fill:#ab8cff;}</style></defs><title>stayHomeFamily</title><g class="cls-1"><path class="cls-2" d="M1923.62,1604.31a44,44,0,0,1,7.15,11.42c370.13-344,721.07-403.37,724.78-404l-2.09-13.08C2649.72,1199.28,2296.05,1259.16,1923.62,1604.31Z" transform="translate(-286.41 -275.97)"></path><path class="cls-2" d="M2501.32,1239.07s77.4,10.51,100.57-119.55C2599.26,1121,2456.11,1185,2501.32,1239.07Z" transform="translate(-286.41 -275.97)"></path><path class="cls-2" d="M2505.07,1258.15s14.94,76.67,145.54,56.81C2648.37,1312.94,2541.71,1198,2505.07,1258.15Z" transform="translate(-286.41 -275.97)"></path><path class="cls-2" d="M2650.61,1315s.06,0,0,0Z" transform="translate(-286.41 -275.97)"></path><path class="cls-2" d="M2381.3,1292.37s90.29-19.1,64.35-173C2443.32,1122,2309.52,1250.23,2381.3,1292.37Z" transform="translate(-286.41 -275.97)"></path><path class="cls-2" d="M2379.06,1312.59s17.64,90.59,172,67.12C2548.37,1377.34,2422.35,1241.5,2379.06,1312.59Z" transform="translate(-286.41 -275.97)"></path><path class="cls-3" d="M2551,1379.71c.05,0,.08.06,0,0Z" transform="translate(-286.41 -275.97)"></path><path class="cls-2" d="M2259.73,1357.06s90.29-19.1,64.35-173C2321.75,1186.72,2188,1314.91,2259.73,1357.06Z" transform="translate(-286.41 -275.97)"></path><path class="cls-3" d="M2043.27,1377.51s0-.06,0,0Z" transform="translate(-286.41 -275.97)"></path><path class="cls-3" d="M2030.16,1513.38s60.9-30.8,13.11-135.87C2042.11,1379.87,1970.86,1496.91,2030.16,1513.38Z" transform="translate(-286.41 -275.97)"></path><path class="cls-2" d="M2257.49,1377.28s17.64,90.59,172,67.12C2426.8,1442,2300.78,1306.19,2257.49,1377.28Z" transform="translate(-286.41 -275.97)"></path><path class="cls-3" d="M2429.45,1444.4c.05,0,.07.06,0,0Z" transform="translate(-286.41 -275.97)"></path><path class="cls-2" d="M2139.34,1438.29s101.73-35.44,49-209.85C2186,1231.9,2050,1400.09,2139.34,1438.29Z" transform="translate(-286.41 -275.97)"></path><path class="cls-2" d="M2137.24,1453s33.81,102.29,209,52.34C2342.85,1503,2176.87,1364.29,2137.24,1453Z" transform="translate(-286.41 -275.97)"></path><path class="cls-3" d="M2346.28,1505.34c.07.05.09.06,0,0Z" transform="translate(-286.41 -275.97)"></path><path class="cls-3" d="M2034.09,1524.76s23.11,69.94,142.92,35.79C2174.68,1558.93,2061.19,1464.1,2034.09,1524.76Z" transform="translate(-286.41 -275.97)"></path><path class="cls-3" d="M2177,1560.55s.07,0,0,0Z" transform="translate(-286.41 -275.97)"></path><path class="cls-2" d="M2597.65,1221.32s50,49.16,136.76-29l.89-4.53C2713.62,1183.53,2594.41,1161.48,2597.65,1221.32Z" transform="translate(-286.41 -275.97)"></path></g><path class="cls-4" d="M1235.44,889.91l11.39,40.67s45.55,71.59,45.55,100.87,105.75,32.54,109,79.72-157.81,109-112.25,169.2,56.94,135,89.48,167.57-4.88,83,182.21,102.49,577.54,35.79,595.44,1.63-39-273.32-39-273.32c-8.14-1.63-74.84-146.42-29.29-149.68s143.17,117.14,175.71,53.69,42.3-296.09,42.3-296.09L1770.69,517.35Z" transform="translate(-286.41 -275.97)"></path><path class="cls-5" d="M2257.22,1562.72c-56.48,3.26-127.8-19.69-195.38-19.71-.18,19.49,6.77,48.47,8.4,67.82,95.66-14.44,167.75-10,170.14-5.76C2246.61,1616.1,2278,1580.26,2257.22,1562.72Z" transform="translate(-286.41 -275.97)"></path><path class="cls-6" d="M2251.26,1557l-21.67,5.46,6.08,43.52s32.66,46.81,45.74,42.46c9.79-3.25-3.77-54.75-11.25-80.57A15.68,15.68,0,0,0,2251.26,1557Z" transform="translate(-286.41 -275.97)"></path><g class="cls-7"><path class="cls-8" d="M1536.26,1384.38a818.65,818.65,0,0,1-164.71-220.18c-11.38-22.25-25.57-48-50.33-51.34-33.25-4.54-55.25,33.54-85.67,47.7-33.43,15.56-73.08,0-103.66-20.57s-58.87-47-94.66-55.87c-37-9.17-76.72,2.35-109,22.72s-58.34,48.92-84,77.12c-10.81,11.88-21.81,24-28.27,38.74s-7.69,32.68.84,46.29c14.49,23.12,48.28,23.29,74.49,15.66s53.1-20.4,79.56-13.71c37.78,9.54,54.78,52.67,64.85,90.32s23.38,81,59.63,95.28,76.35-8.71,103.88-36.14c26.39-26.28,48.74-55.19,91.42-39.23,33.11,12.39,42.73,49.15,53.93,78.73,12.84,33.9,40.17,62.32,74,75.54a130,130,0,0,0,69.7,6.46c26.11-4.64,43.4-18.51,65.52-30.89,18-10,36.28-20.37,50.06-35.67s22.45-36.75,17.36-56.7C1590.73,1428.76,1559.58,1406.52,1536.26,1384.38Z" transform="translate(-286.41 -275.97)"></path><path class="cls-4" d="M1582.44,1441.81a3.2,3.2,0,0,0-4.44.87c-.31.47-7.87,11.37-25.68,13-19,1.71-52.54-7.32-104.22-60.13q-15.69-16.05-29.89-30.87c-80.91-84-129.74-134.76-190.83-88-58.59,44.83-87.42,15.28-139.76-38.37q-6.31-6.45-13-13.29c-36.22-36.65-68.58-53.58-101.83-53.28-36.24.32-73.69,21.3-114.52,64.11a3.2,3.2,0,1,0,4.64,4.42c39.58-41.46,75.52-61.81,109.94-62.12,31.39-.28,62.28,16.05,97.2,51.38q6.74,6.81,13,13.27c51.28,52.55,85.15,87.27,148.26,39,56.54-43.27,101.21,3.14,182.31,87.37,9.49,9.86,19.45,20.2,29.93,30.91,43,44,79.92,64.83,109.63,62,12.61-1.21,20.88-6.54,25.53-10.68a29.5,29.5,0,0,0,4.66-5.12A3.2,3.2,0,0,0,1582.44,1441.81Z" transform="translate(-286.41 -275.97)"></path></g><g class="cls-9"><path class="cls-3" d="M1556,1148.85c-62.51-47.4-115.8-107.56-167.32-165.75-13.23-14.93-26.45-29.87-39.83-44.61-62.32-68.61-138.79-144.15-233.59-184.06-102.12-43-215.59-34.17-289.09,22.48l8.09,10.51c69.79-53.8,178.06-61.95,275.85-20.78,92.42,38.92,167.58,113.22,228.91,180.77,13.35,14.7,26.53,29.59,39.73,44.48,52,58.67,105.68,119.34,169.24,167.52,91.92,69.69,191.78,100.31,281.2,86.21l-2.07-13.1C1711.37,1250.77,1607.6,1187.94,1556,1148.85Z" transform="translate(-286.41 -275.97)"></path><path class="cls-3" d="M792.1,802.48c13.61,42.17,75.84-43.67,75.84-43.67S778.49,760.31,792.1,802.48Z" transform="translate(-286.41 -275.97)"></path><path class="cls-3" d="M901.36,807.2c30.1,36.41,57.93-73.14,57.93-73.14S871.26,770.78,901.36,807.2Z" transform="translate(-286.41 -275.97)"></path><path class="cls-3" d="M1532.9,1231.45c9.5,46.27,85.47-37.43,85.47-37.43S1523.4,1185.17,1532.9,1231.45Z" transform="translate(-286.41 -275.97)"></path><path class="cls-3" d="M892.63,670.39C852.35,695.07,956.9,738,956.9,738S932.92,645.71,892.63,670.39Z" transform="translate(-286.41 -275.97)"></path><path class="cls-3" d="M1627.87,1101.76c-44.68-15.35-11.24,92.63-11.24,92.63S1672.54,1117.11,1627.87,1101.76Z" transform="translate(-286.41 -275.97)"></path><path class="cls-3" d="M1051.54,631.59c-62.24,2.75,31,119.08,31,119.08S1113.78,628.83,1051.54,631.59Z" transform="translate(-286.41 -275.97)"></path><path class="cls-3" d="M1544.13,1010.93c-58.75-20.72-15.82,122-15.82,122S1602.88,1031.66,1544.13,1010.93Z" transform="translate(-286.41 -275.97)"></path><path class="cls-3" d="M1232.7,644.27c-85.09-29.09-21.13,176.34-21.13,176.34S1317.79,673.37,1232.7,644.27Z" transform="translate(-286.41 -275.97)"></path><path class="cls-3" d="M1343.38,745.54c-85.09-29.1-21.13,176.34-21.13,176.34S1428.47,774.63,1343.38,745.54Z" transform="translate(-286.41 -275.97)"></path><path class="cls-3" d="M1454.94,869.08c-85.08-29.1-21.13,176.34-21.13,176.34S1540,898.18,1454.94,869.08Z" transform="translate(-286.41 -275.97)"></path><path class="cls-3" d="M1061.25,912.29c30.61,84.56,150.71-94,150.71-94S1030.64,827.73,1061.25,912.29Z" transform="translate(-286.41 -275.97)"></path><path class="cls-3" d="M1174,1009.68c30.61,84.56,150.71-94,150.71-94S1143.42,925.13,1174,1009.68Z" transform="translate(-286.41 -275.97)"></path><path class="cls-3" d="M1264.94,1083.9c2.51,89.9,172.59-41.89,172.59-41.89S1262.42,994,1264.94,1083.9Z" transform="translate(-286.41 -275.97)"></path><path class="cls-3" d="M993.21,829.18c31.54,53.73,90.8-83,90.8-83S961.68,775.45,993.21,829.18Z" transform="translate(-286.41 -275.97)"></path><path class="cls-3" d="M1406.52,1150.32c-4.77,62.12,122-16.4,122-16.4S1411.28,1088.2,1406.52,1150.32Z" transform="translate(-286.41 -275.97)"></path></g><path class="cls-10" d="M1658.44,1727.92H533.49a12.65,12.65,0,1,0,0,25.29h1125a12.65,12.65,0,0,0,0-25.29Z" transform="translate(-286.41 -275.97)"></path><path class="cls-11" d="M1605.24,778.24c-74.74-31.32-121.45-4.34-148.57,16.12-20.38,15.37-42.69,54.13-20.46,83.89-11.06-11.74-70.11-35.84-114.12,5.49-18,17-9.4,44.29,7.9,55.44-16.78,2.49-33.78,5-49.36,11.75s-29.84,18.16-36.23,33.88-3.17,35.86,10.22,46.27c-27.7,1.75-53.77,22.79-59,50.06s13.06,57.64,40.15,63.66,57.58-16,58.34-43.71c24.24,9.47,49.62,19.11,75.52,16.52s52.14-21.62,53.57-47.6c13.72,8.49,27.62,17.07,43,22s32.57,6,47.36-.43,26.35-21.56,25.55-37.69c16,4.37,32.23,8.77,48.81,8.95s33.87-4.3,46-15.65,17.63-30.42,10.3-45.3c21.64-4.47,51.55-48.69,40.49-106.74C1677.53,857.66,1666,803.68,1605.24,778.24Z" transform="translate(-286.41 -275.97)"></path><path class="cls-12" d="M2210.62,1598.33c-4.7-1.19-27.89-69.6-39-165.71-19.1,3.5-48.89,4.39-67.65,9.67,17.73,65.21,58.57,128,70.22,183.39C2196.56,1641.18,2222.91,1601.45,2210.62,1598.33Z" transform="translate(-286.41 -275.97)"></path><path class="cls-13" d="M2210.27,1593.55l-43.6,5.54.41,22.34a15.7,15.7,0,0,0,15.44,15.4c26.88.44,80.13,0,80.7-10.26C2264,1612.8,2210.27,1593.55,2210.27,1593.55Z" transform="translate(-286.41 -275.97)"></path><path class="cls-12" d="M2286.47,886.62c-10-13.55-20.82-4.14-20.82-4.14,2,9.54,14.33,61.06,43.4,70.58s54.17-20,37.22-46.31S2296.45,900.18,2286.47,886.62Z" transform="translate(-286.41 -275.97)"></path><rect class="cls-14" x="2024.13" y="360.8" width="44.73" height="690.66" transform="translate(19.62 1717.62) rotate(-55.53)"></rect><rect class="cls-14" x="1156.59" y="684.49" width="690.66" height="44.73" transform="translate(-422.77 698.21) rotate(-34.47)"></rect><path class="cls-12" d="M1248,909s12.3,45.69-1.75,52.72c119.49,100.16,347.92,165.18,347.92,165.18s1.76-82.59,0-87.86C1479.94,1040.76,1248,909,1248,909Z" transform="translate(-286.41 -275.97)"></path><path class="cls-12" d="M1227.62,891.7c-8.31-14.65-20.18-6.59-20.18-6.59.87,9.71,7,62.33,34.7,75.24s56.16-13.41,42.46-41.56S1235.92,906.35,1227.62,891.7Z" transform="translate(-286.41 -275.97)"></path><path class="cls-15" d="M1566.05,1019.68c-15.82,15.81-15.82,80.83-8.79,91.37s177.48,58,239,10.54S1791,984.53,1791,984.53,1668,1042.52,1566.05,1019.68Z" transform="translate(-286.41 -275.97)"></path><path class="cls-14" d="M1679.09,1057.16s-23.43,100.75-17.57,121.84c22.26,48,187.44,111.28,187.44,111.28s7-69.11-12.89-93.71S1679.09,1057.16,1679.09,1057.16Z" transform="translate(-286.41 -275.97)"></path><path class="cls-16" d="M1412.5,1340.47s-91,173.87-61.8,239.17,325.84,64.73,349.51,14.47-61.81-233.82-61.81-233.82Z" transform="translate(-286.41 -275.97)"></path><path class="cls-12" d="M2290.27,914.71s-11.9,208.21-56.28,229.72c-5.81,5.55-7.79,72.9-7.79,72.9s121.4,68.06,105.16-277C2329.77,940.49,2290.27,914.71,2290.27,914.71Z" transform="translate(-286.41 -275.97)"></path><path class="cls-17" d="M1844.65,1515.82s143.72-23.48,193-98.51-129.59-125.74-179.18-96.59c-7.49,4.4-236.52,156.11-195.52,264.17s449.52,41.94,449.52,41.94l-12.53-97.12Z" transform="translate(-286.41 -275.97)"></path><path class="cls-13" d="M1961.58,1473.08c79,51.37,210.91-8.6,210.91-8.6s39.84-48.47-6-115.85S1893,1429.52,1961.58,1473.08Z" transform="translate(-286.41 -275.97)"></path><path class="cls-5" d="M1949.7,843.37s-70.63,49.4-75,39c-.23,88.18-29.8,119.17-35.12,123.89,18.43,28.82,188.75,3.72,177.55-19.62C1968.45,974,1949.7,843.37,1949.7,843.37Z" transform="translate(-286.41 -275.97)"></path><path class="cls-18" d="M1988.57,941.71s-69.93,65.11-132.63,14.47c0,0-87.81,9.55-87.81,53s10.64,364.24,20.29,376.3,226.68,26.52,289.38-21.71c26.53-28.93,24.11-308.67,19.29-352.08S1988.57,941.71,1988.57,941.71Z" transform="translate(-286.41 -275.97)"></path><path class="cls-12" d="M1646.54,1588.69c-4-2.11-58.52-34.42-132.26-85.19-9.19,15.44-19.44,30.26-27.19,46.55,56.23,27.35,108.8,55.8,159.45,79.59C1671,1623.48,1670,1601.23,1646.54,1588.69Z" transform="translate(-286.41 -275.97)"></path><path class="cls-6" d="M1651.06,1589.4l-29.48,28,12.54,16.44a14.52,14.52,0,0,0,19.94,3c20.3-14.39,59.79-43.85,54.58-51.84C1701.67,1574.34,1651.06,1589.4,1651.06,1589.4Z" transform="translate(-286.41 -275.97)"></path><path class="cls-5" d="M1610.67,1024.89s13.19-134.23,26.59-161.27-74.14-6.78-74.14-6.78-14.64,136.48-77.32,152.29c-39.64,10,120.76,69.2,149.32,56.47S1610.67,1024.89,1610.67,1024.89Z" transform="translate(-286.41 -275.97)"></path><path class="cls-17" d="M2033.76,1165.85c-24.36,25.81-22.47,65.05-11.45,98.79,53.15,162.69,101,292.58,108.94,299.61,41.3,1.76,68.94-16.53,68.94-16.53s3.86-265-56.34-352.48C2110.41,1146.62,2059.5,1138.6,2033.76,1165.85Z" transform="translate(-286.41 -275.97)"></path><path class="cls-18" d="M2256.63,1121.59c-141.48-131.83-182.32-141.38-182.32-141.38s1.61,85.2,6.43,149.51c33.76,41.8,164.47,99.21,167.69,100.82C2264.83,1187.2,2253.41,1123.2,2256.63,1121.59Z" transform="translate(-286.41 -275.97)"></path><path class="cls-14" d="M1692.91,1072.35s-37.26-40.86-77.42-60c-1.94-.93-48.52,50.53-107.93-17.85,0,0-39.09-7.72-84.7,21.19-60.17,38.13-41.41,343.54-12.6,365.21s164.07,38,256,7c28.87-9.76-14.19-86.58-2.64-136.85C1685.75,1154.47,1698.69,1071.19,1692.91,1072.35Z" transform="translate(-286.41 -275.97)"></path><path class="cls-12" d="M1728,1244.8c-28.78-6.63-95.56-62.78-95.56-62.78s-29.85,3.45-21.39,40.51c10.4,45.53,119.13,58.88,129,56.62S1756.76,1251.44,1728,1244.8Z" transform="translate(-286.41 -275.97)"></path><path class="cls-19" d="M1600.85,1150s-9.54,28.08-7.27,53.59c2.34,26.34,8.2,52.13,25.27,52.62,7.07.2,23.35-64.9,22.76-74.88S1600.85,1150,1600.85,1150Z" transform="translate(-286.41 -275.97)"></path><path class="cls-12" d="M1958.83,1472.62c-24.86,33.86-39.6,78-62,105.14,1.13,16.88,30.65,14.32,27.41,7.14-1.24-2.75,23-40.51,65.48-83.12C1980.62,1493.84,1968.66,1479.7,1958.83,1472.62Z" transform="translate(-286.41 -275.97)"></path><path class="cls-20" d="M1906.85,1563.82l-10.71,8.85a9.75,9.75,0,0,0-1.51,13.46c10.19,13.25,31,39,36.23,35.28,7-5-4.44-38.53-4.44-38.53Z" transform="translate(-286.41 -275.97)"></path><path class="cls-12" d="M2096,1505.88c-3,.15-29.25-36.29-53.36-91.38-10.72,5.56-28.26,11.51-38.45,18.06,22.41,35.53,58.12,65.43,75.12,96.21C2095.42,1533.91,2103.84,1505.5,2096,1505.88Z" transform="translate(-286.41 -275.97)"></path><path class="cls-20" d="M2094.89,1503.11l-24.9,11.22,4.31,13.21a9.76,9.76,0,0,0,12,6.34c16.06-4.63,47.63-14.57,46.1-20.79C2130.33,1504.76,2094.89,1503.11,2094.89,1503.11Z" transform="translate(-286.41 -275.97)"></path><path class="cls-6" d="M1779,1062.73c-30.46,7.61-50.81,22.4-57.55,60.18,0,0-3.07,70.29-35.29,97.23s-62.67,69.12-31,86.11,152.29,4.68,179.23-4.1,74.68-110.71,36-188.46C1848.08,1072.1,1809.42,1055.11,1779,1062.73Z" transform="translate(-286.41 -275.97)"></path><path class="cls-12" d="M1961.42,1329.82c-1.32,0-48.33,2.64-72.93-1.32s-45.68-68.53-45.68-68.53c-26.8,23.73,6.15,73.37,18.45,91.38s24.6-1.76,47.44-2.64,84.79,16.26,80.39-3.07S1962.74,1329.82,1961.42,1329.82Z" transform="translate(-286.41 -275.97)"></path><path class="cls-21" d="M2009,1352.72c-44.08-35.92-168.15-4.9-168.15-4.9s-47.34,42.45-22.85,63.67,143.66,14.69,148.55,14.69,86.26,79.65,86.26,79.65l35.15-25.18S2053.06,1388.63,2009,1352.72Z" transform="translate(-286.41 -275.97)"></path><path class="cls-21" d="M1831,1369l-84.89,45.71c3.26,4.9,0,49,63.66,49s145.3-18,145.3-18-41.72,80.73-41.72,90.52,37.48,25.78,37.48,25.78,74.43-55.9,64.64-144S1831,1369,1831,1369Z" transform="translate(-286.41 -275.97)"></path><path class="cls-22" d="M1827.43,1213.85c-12.3,11,11.86,64.13,13.18,64.13s11.86-11.42,5.71-35.14S1827.43,1213.85,1827.43,1213.85Z" transform="translate(-286.41 -275.97)"></path><path class="cls-12" d="M1581.87,1470.84l3.71-60.21-37.07,20.6s7.72,46.25,7.61,48,11.82,17.75,35.2,19.19S1581.87,1470.84,1581.87,1470.84Z" transform="translate(-286.41 -275.97)"></path><path class="cls-12" d="M1603.65,1416.56s-5,46.63-5.56,48.29,6.62,20.26,28.76,27.93-1.7-29.1-1.7-29.1l19.74-57Z" transform="translate(-286.41 -275.97)"></path><path class="cls-6" d="M1646.17,1277.7c-32.57-11.62-68.64,34.49-68.64,34.49-22.77,27.21,5.49,119.86,7.47,125.83s62.91-8.3,62.91-8.3S1690.57,1293.55,1646.17,1277.7Z" transform="translate(-286.41 -275.97)"></path><path class="cls-23" d="M1317.36,1343.43s-54.1,0-40.14,76.79S1528.53,1586,1573.91,1607c15.7,8.72,50.61-76.79,50.61-76.79S1415.09,1329.47,1317.36,1343.43Z" transform="translate(-286.41 -275.97)"></path><path class="cls-6" d="M1460,1325.43s-2.93,66.77,40.42,78.49,73.21,1.75,73.21,1.75,2.35-80.83,1.17-85.51S1460,1325.43,1460,1325.43Z" transform="translate(-286.41 -275.97)"></path><path class="cls-19" d="M1602.33,1150.31c-13.52-9.21-122.71-26.1-146.91,3.72,0,0-11.4,2.34-14.67,44.28s5.3,107.89,32.75,133,93.56,19,120.08,4.1S1615.86,1159.53,1602.33,1150.31Z" transform="translate(-286.41 -275.97)"></path><path class="cls-13" d="M1580,1274.35c-35.51-5.28-73.34,56.08-73.34,56.08-18.65,32.86,31.21,112.66,34.21,118.84s56.79-1.69,56.79-1.69S1631.2,1282,1580,1274.35Z" transform="translate(-286.41 -275.97)"></path><path class="cls-12" d="M1432,1344.08s-103.06-50.59-102.24-66.66,81.32-95.2,81.32-95.2l-70.41-24.79s-100.79,108.5-89.25,134.87,97.6,96.54,180.49,84.29c3.73,1.14,72.67,7.66,76.36-32.72C1510.58,1318,1432,1344.08,1432,1344.08Z" transform="translate(-286.41 -275.97)"></path><path class="cls-14" d="M1265.26,1229.82c0,7,52.31,39.94,75,45.17,11.63-9.09,61.2-62.61,85.21-111.22,22.42-45.38-3.19-148.81-3.19-148.81S1370.37,1044.38,1265.26,1229.82Z" transform="translate(-286.41 -275.97)"></path><path class="cls-12" d="M1469.18,1320.76s-27.82-46.77-17.86-75.75-17.65-59.57-17.65-59.57-33.9,54.1-28.7,85.52,24.9,72.83,60.33,79.07,43.35,3.51,44.52-8.79C1512.68,1311.19,1469.18,1320.76,1469.18,1320.76Z" transform="translate(-286.41 -275.97)"></path><path class="cls-19" d="M1423.13,1196c-6.94,23.79,0,52.38,26.92,55.79s9.39-100.89,9.39-100.89S1430.06,1172.19,1423.13,1196Z" transform="translate(-286.41 -275.97)"></path><path class="cls-12" d="M1574.67,1037.41c-58.13-44.28-111,5.64-113.69,45.18s43.19,95.64,86.79,79.87c51-24.37,25.84-69.22,31-79.73C1586.58,1063.24,1574.67,1037.41,1574.67,1037.41Z" transform="translate(-286.41 -275.97)"></path><path class="cls-18" d="M1861.26,950.56l-17.57,7.61s61.5,76.15,161.07-12.3c-.58,0-20.5-8.78-20.5-8.78S1927.45,991.56,1861.26,950.56Z" transform="translate(-286.41 -275.97)"></path><path class="cls-6" d="M1498.5,1015.52c-29.2,11.82-58.13,50.54-45.77,79s35.11,50,35.11,50,10.44-15.5,5.45-26.36c-5.18-11.25-14.14-32.66,10.06-29.45,0,0,1.54-14,9.38-20,12.68-9.61,36.68-12.26,58.72-6.15,18.74,9.54,15.79-8.88,11.92-24.67S1527.69,1003.7,1498.5,1015.52Z" transform="translate(-286.41 -275.97)"></path><path class="cls-12" d="M1396,1591.69c-24.53,7.56-29.5,28.45-7.51,38.75,52.31-13.22,107.29-30.49,165.53-46.07-4.34-16.84-11.32-32.74-17.19-49C1457.69,1569.85,1400.11,1590.42,1396,1591.69Z" transform="translate(-286.41 -275.97)"></path><path class="cls-6" d="M1346.21,1573.24c-6.51,6.5,24.83,42.19,41.1,59.82a14,14,0,0,0,19.41,1.14l15.12-13-22.2-32.31S1354.92,1564.55,1346.21,1573.24Z" transform="translate(-286.41 -275.97)"></path><path class="cls-24" d="M1771.64,1173.87s-91.07,168.16-25.77,262.85c74.24,48,130.62-80.83,130.62-80.83s-43.25-105.1-47.74-134.14C1823,1184.85,1778.17,1167.34,1771.64,1173.87Z" transform="translate(-286.41 -275.97)"></path><path class="cls-12" d="M1742.11,1132.46c-7.16,36.67,29.12,94.55,71.76,84.93,50.55-16.77,32.33-61.69,38.37-70.91,9.63-17.31,1.54-42.87,1.54-42.87C1804.62,1055.34,1749.27,1095.79,1742.11,1132.46Z" transform="translate(-286.41 -275.97)"></path><path class="cls-6" d="M1779.25,1084.55c-82.49,22.58-27.23,122.56-27.23,122.56s-12.69-32.33,14.49-38.07c44.37-9.37,54.92-48,54.92-48,26.94,5.86,36.46,34.26,36.46,34.26s7.61-7.9,5.27-29.58S1853.06,1064.34,1779.25,1084.55Z" transform="translate(-286.41 -275.97)"></path><path class="cls-12" d="M1783.06,1466s14.06,6.59,9.23-1.75c-3.83-6.61-12.74-17.57-12.74-17.57s-29.44-60.19-26.07-82c.9-5.82,27-85.51,27-85.51l-45.69-19.92s-21.84,80.86-22.84,97.23c-2.2,35.73,40.85,99,46.12,104.26,2.93,2.35,2.2,27.24,30.31,27.68C1807.68,1488.71,1783.06,1466,1783.06,1466Z" transform="translate(-286.41 -275.97)"></path><path class="cls-25" d="M1757.58,1228.93c-26.36,9.37-38.07,58.57-38.07,58.57,14.64,30.46,56.82,25.77,59.16,25.19,1.24-.31,15.26-24.36,11-44.81C1785.84,1249.69,1764.2,1235.27,1757.58,1228.93Z" transform="translate(-286.41 -275.97)"></path><path class="cls-23" d="M1709.62,1393.55c-28-8.81-58.51-1.3-80.73,17.83-54.7,47.12-183.32,155.12-214.09,156.11-2.76-4.09,22.21,50.52,62.66,61.92,7.52-2.1,226.24-57.47,261.59-157.27C1756.73,1422.23,1735.39,1401.65,1709.62,1393.55Z" transform="translate(-286.41 -275.97)"></path><path class="cls-12" d="M1838.51,791.4s-38.22,136.6,9.87,169.81,125.91-40.44,121.32-112.64S1870.66,748,1838.51,791.4Z" transform="translate(-286.41 -275.97)"></path><path class="cls-6" d="M1842.85,722.41c-21.31,4.36-42.66,27-9.77,99-.4-1.94.35-22.77,17.74-36.42,0,0,61.28-10,96,31.36,5.5,17,16.67,61.39,14.29,83.4,3.21-7.19,33.66-59,8.76-138.71C1945.64,721.59,1864.17,718.05,1842.85,722.41Z" transform="translate(-286.41 -275.97)"></path><path class="cls-12" d="M1952.75,849.25l2.11,46.29s16.66-25.57,15.27-36.23C1967.88,842,1952.75,849.25,1952.75,849.25Z" transform="translate(-286.41 -275.97)"></path><path class="cls-6" d="M1936.31,884.86c-22.29,22.94-50.31,12.92-62.12,1.58a9.23,9.23,0,0,0-6.83-2.62c-1,.06-2.71,0-4.25,0a7.86,7.86,0,0,0-5.71,2.14c-7.49,7.25-25.37,8.94-32.77-8.65-20.22,63.28,23.74,106.7,66.9,99,71.65-12.72,64.24-121.49,64.24-121.49S1948.55,872.26,1936.31,884.86Z" transform="translate(-286.41 -275.97)"></path><path class="cls-12" d="M1547.22,814.19c-16.89,10.4-29,28-29.44,53.08-1.24,70.23,56.89,131.78,109.14,104.33,29.83-15.67,36.56-88.91,28.23-111.72C1637.8,812.42,1590.25,787.69,1547.22,814.19Z" transform="translate(-286.41 -275.97)"></path><path class="cls-11" d="M1597.19,782.43S1488,762,1492.48,933.71c2,76.3,48.88,18.84,56.78-22.11,71.36-4.31,90.49-66,90.49-66s20.18,19.54,21,56.16C1671.39,796.63,1597.19,782.43,1597.19,782.43Z" transform="translate(-286.41 -275.97)"></path><path class="cls-26" d="M1197.24,459.41a19.41,19.41,0,0,1-5.39-28.13,16.72,16.72,0,0,1-22.72-17c-5.63,7.12-17.15,8.57-24.37,3.08a17.72,17.72,0,0,1-24.93,12c5.31,9.59,1.28,23.18-8.4,28.32,8.45,4.6,11.62,16.79,6.48,24.92a20.61,20.61,0,0,1,24.49,18.58,18.28,18.28,0,0,1,28.82-.88c-3.18-4.28-1.08-10.87,3.23-14s10-3.58,15.35-3.19a13.06,13.06,0,0,1,7.44-23.63Z" transform="translate(-286.41 -275.97)"></path><path class="cls-27" d="M1948.78,460.56a12.79,12.79,0,0,1-3.55-18.52,11,11,0,0,1-15-11.21,12,12,0,0,1-16,2,11.67,11.67,0,0,1-16.42,7.88c3.49,6.32.84,15.27-5.54,18.65,5.57,3,7.66,11.05,4.28,16.41A13.57,13.57,0,0,1,1912.67,488a12,12,0,0,1,19-.57c-2.1-2.82-.71-7.17,2.13-9.24s6.6-2.36,10.1-2.1a8.6,8.6,0,0,1,4.9-15.56Z" transform="translate(-286.41 -275.97)"></path><path class="cls-28" d="M2471.57,795.38a8.42,8.42,0,0,1-2.33-12.18,7.23,7.23,0,0,1-9.83-7.36,7.89,7.89,0,0,1-10.55,1.33,7.67,7.67,0,0,1-10.79,5.18,9.32,9.32,0,0,1-3.63,12.26,7.94,7.94,0,0,1,2.8,10.78,8.92,8.92,0,0,1,10.6,8,7.9,7.9,0,0,1,12.47-.38c-1.38-1.85-.47-4.71,1.4-6.07s4.34-1.55,6.64-1.38a5.65,5.65,0,0,1,3.22-10.22Z" transform="translate(-286.41 -275.97)"></path><path class="cls-28" d="M2319.36,399.52a8.42,8.42,0,0,1-2.33-12.18,7.23,7.23,0,0,1-9.83-7.36,7.88,7.88,0,0,1-10.55,1.33,7.67,7.67,0,0,1-10.79,5.18,9.32,9.32,0,0,1-3.63,12.26,8,8,0,0,1,2.81,10.78,8.92,8.92,0,0,1,10.59,8,7.92,7.92,0,0,1,12.47-.38c-1.37-1.85-.46-4.71,1.4-6.07s4.34-1.55,6.65-1.38a5.64,5.64,0,0,1,3.21-10.22Z" transform="translate(-286.41 -275.97)"></path><path class="cls-28" d="M1389.07,607.62a8.42,8.42,0,0,1-2.33-12.18,7.23,7.23,0,0,1-9.83-7.36,7.88,7.88,0,0,1-10.55,1.33,7.67,7.67,0,0,1-10.79,5.18,9.32,9.32,0,0,1-3.63,12.26,7.94,7.94,0,0,1,2.8,10.78,8.92,8.92,0,0,1,10.6,8,7.9,7.9,0,0,1,12.47-.38c-1.38-1.85-.46-4.71,1.4-6.07s4.34-1.55,6.64-1.38a5.65,5.65,0,0,1,3.22-10.22Z" transform="translate(-286.41 -275.97)"></path><circle class="cls-29" cx="2344.5" cy="586.5" r="97" transform="translate(-280.34 920.75) rotate(-28.67)"></circle><path class="cls-30" d="M2411,487.45c-5.6-3.07-8.24-2.74-8.24-2.74s-3.61-10.82-9.65-6.46-1.25,5.11-7.13,16.16-10.67,16.73-19.68,20.93-1.33,9.58,4.27,13.95c6.67,5.21,13.19,5.89,13.21-2.7,0,0,3.58-19.88,15.4-25.22S2416.62,490.51,2411,487.45Z" transform="translate(-286.41 -275.97)"></path><path class="cls-30" d="M2458.92,617.12c-6.7-3.25-5.1,1.32-17.61,1.36s-19.8-1.49-27.75-7.44-9.08,3.36-10.28,10.36c-1.43,8.34,1.06,14.4,8.63,10.36,0,0,19.21-6.24,29.5,1.64s17.82,10.22,17.87,3.83-1.49-8.56-1.49-8.56S2465.61,620.37,2458.92,617.12Z" transform="translate(-286.41 -275.97)"></path><path class="cls-30" d="M2464.58,546.05s3.84-10.74-3.59-11-4.15,3.25-15.6,8.3-18.73,6.56-28.4,4.29-7,6.72-5.27,13.61c2,8.22,6.73,12.78,12.05,6,0,0,15.11-13.41,27.69-10.31s20.42,2.23,17.91-3.64S2464.58,546.05,2464.58,546.05Z" transform="translate(-286.41 -275.97)"></path><path class="cls-30" d="M2371.08,663.74c3-9.56-6.2-7.43-13.2-6.22-8.34,1.44-13.22,5.82-6.87,11.6,0,0,12.31,16,8.33,28.35s-3.66,20.21,2.37,18.11,7.57-4.27,7.57-4.27,10.44,4.6,11.26-2.8-2.95-4.36-7.18-16.14S2368.14,673.22,2371.08,663.74Z" transform="translate(-286.41 -275.97)"></path><path class="cls-30" d="M2307.92,645.33c-6.6-5.31-13.1-6.08-13.25,2.5,0,0-3.88,19.83-15.76,25s-17.6,10.6-12,13.75,8.21,2.86,8.21,2.86,3.45,10.87,9.55,6.59,1.32-5.09,7.36-16,10.93-16.58,20-20.63S2313.45,649.78,2307.92,645.33Z" transform="translate(-286.41 -275.97)"></path><path class="cls-30" d="M2265,577.93s-18.57,8-29.53,1-18.66-8.58-18.14-2.21,2.25,8.39,2.25,8.39-7,9-.08,11.6,5-1.77,17.42-2.94,19.84-.28,28.3,4.93,8.74-4.17,9.31-11.24C2275.21,579,2272.18,573.22,2265,577.93Z" transform="translate(-286.41 -275.97)"></path><path class="cls-30" d="M2319.58,505.72s-15-13.51-13.35-26.37-.07-20.54-5.63-17.38-6.66,5.58-6.66,5.58-11.1-2.62-10.57,4.8,3.7,3.75,10,14.57,8.62,17.88,7.45,27.74,7.45,6.17,14.11,3.71C2322.87,515.44,2326.87,510.24,2319.58,505.72Z" transform="translate(-286.41 -275.97)"></path><path class="cls-30" d="M2295.89,603.5c-4-1.47-6.12-.27-4.83,2.73,0,0,3.16,3.22-1.43,6s-10.24-1-11.38,5.95c-.94,5.8,7.48,15.26,14.73,11.26,4.56-2.53,2-8.5,3.87-10.42,3.51-3.6,11.93,2.08,11.36-1.93C2307.31,610.81,2301.55,605.61,2295.89,603.5Z" transform="translate(-286.41 -275.97)"></path><path class="cls-30" d="M2334.24,552.94s-3.33,4-7-1,0-11.79-8.05-12.31c-6.72-.44-16.58,10.22-11.21,18,3.38,4.93,9.92,1.34,12.31,3.26,4.49,3.61-1.06,13.84,3.46,12.74,7-1.71,12.33-8.86,14.11-15.55C2339.13,553.46,2337.51,551.13,2334.24,552.94Z" transform="translate(-286.41 -275.97)"></path><path class="cls-30" d="M2386.9,545.62c-5.92.79-5.66,8.25-8.46,9.52-5.24,2.38-11.88-7.18-12.93-2.66-1.65,7.06,2.35,15,7.52,19.61,3.61,3.22,6.42,2.83,6.28-.91,0,0-2-4.75,4-5.79s10.52,5.35,14.62-1.63C2401.37,558,2396.3,544.35,2386.9,545.62Z" transform="translate(-286.41 -275.97)"></path><path class="cls-30" d="M2354.43,599.78c-1-4.33,7.18-7.93,3.92-9.4-5.1-2.28-11.7-.44-15.95,2.79-3,2.26-3.09,4.44-.24,4.89,0,0,3.9-.83,3.78,3.9s-5.59,7.16-.92,11.3c3.88,3.44,14.92,1.62,15.35-5.68C2360.65,603,2355,602.08,2354.43,599.78Z" transform="translate(-286.41 -275.97)"></path><path class="cls-30" d="M2260.51,524.81c-16.09-3.15-27.08-17-27.08-17-9.73-3.45-8.52,7.23-9.7,7.07s-8.89,7.77.17,9.63,24.88,4.67,35.4,15.45,15,2.09,16.86-4.56S2276.59,528,2260.51,524.81Z" transform="translate(-286.41 -275.97)"></path><path class="cls-30" d="M2352.37,444.89c-.25-1.16-10.34-5.71-9,3.44s4.1,25-2.45,38.55,3.16,14.84,10,14.29,7.15-2.13,4.62-18.32,6.74-31.25,6.74-31.25C2362.25,441.27,2352.62,446.06,2352.37,444.89Z" transform="translate(-286.41 -275.97)"></path><path class="cls-30" d="M2455.91,498.7c.72-1-2.51-11.54-8.51-4.51s-16.11,19.54-30.62,23.54-9.09,12.15-4.15,17,6.32,4,16.83-8.59,28-15.51,28-15.51C2465.14,503.74,2455.2,499.65,2455.91,498.7Z" transform="translate(-286.41 -275.97)"></path><path class="cls-30" d="M2486,583.89c1.11-.43,3.94-11.13-4.86-8.32s-24,8.13-38.43,3.9-14.13,5.54-12.46,12.24,3.27,6.7,18.83,1.56S2481,594.8,2481,594.8C2491.16,593.05,2484.86,584.33,2486,583.89Z" transform="translate(-286.41 -275.97)"></path><path class="cls-30" d="M2440.28,683.39c-8-4.67-22.06-12.42-28.55-26s-13.56-6.82-17.43-1.1-2.81,6.91,11.41,15.06,20.17,24.8,20.17,24.8c8.1,6.4,10.39-4.11,11.45-3.57S2448.26,688.07,2440.28,683.39Z" transform="translate(-286.41 -275.97)"></path><path class="cls-30" d="M2322.71,667.68c-6.2-1.2-6.81.25-8.44,16.56s-13.4,28.53-13.4,28.53c-2.4,10,7.23,7.81,7.17,9s7.75,8.14,8.75-1,2.35-25.2,11.35-36.67S2328.9,668.88,2322.71,667.68Z" transform="translate(-286.41 -275.97)"></path><path class="cls-30" d="M2269.38,624.28c-4.54-4.37-5.85-3.48-16.08,9.32s-26.74,16.67-26.74,16.67c-7.46,7.1,1.82,10.48,1.12,11.45s2.09,11,7.92,3.87,15.67-19.88,29.46-24.62S2273.93,628.66,2269.38,624.28Z" transform="translate(-286.41 -275.97)"></path><circle class="cls-29" cx="1578.71" cy="425.23" r="70.72" transform="translate(132.84 1301.99) rotate(-59.91)"></circle><path class="cls-20" d="M1650.82,379.26s1.34-8.21-4-7.43-2.54,2.87-10.08,8-12.56,7.19-19.79,6.84-4.11,5.74-2,10.46c2.54,5.62,6.52,8.26,9.44,2.73,0,0,9.06-11.62,18.49-11.07s14.94-1.1,12.36-5S1650.82,379.26,1650.82,379.26Z" transform="translate(-286.41 -275.97)"></path><path class="cls-20" d="M1630.37,478.68c-8.1-4.21-12.27-7.67-15.39-14.21s-7-.9-10.15,3.21c-3.75,4.9-4.2,9.66,2.06,9.61,0,0,14.52,2.48,18.49,11.06s8,12.63,10.24,8.53,1.94-6,1.94-6,7.86-2.7,4.64-7.07S1638.46,482.9,1630.37,478.68Z" transform="translate(-286.41 -275.97)"></path><path class="cls-20" d="M1671.36,431.47c-4.7-2.72-3.78.69-12.88.07s-14.32-2.12-19.79-6.86-6.78,2-8,7c-1.47,6,0,10.53,5.74,8,0,0,14.3-3.54,21.37,2.72s12.43,8.36,12.79,3.72-.63-6.3-.63-6.3S1676.06,434.18,1671.36,431.47Z" transform="translate(-286.41 -275.97)"></path><path class="cls-20" d="M1563.29,475.61c-5.88-1.89-10.51-.72-8.37,5.16,0,0,2.52,14.51-4.23,21.13s-9.21,11.8-4.61,12.5,6.34-.19,6.34-.19,5.18,6.5,8.22,2-.43-3.81.83-12.85,3.12-14.13,8.23-19.26S1568.21,477.2,1563.29,475.61Z" transform="translate(-286.41 -275.97)"></path><path class="cls-20" d="M1525.76,447.94s-9.22,11.49-18.65,10.79-14.95.89-12.42,4.8,4.33,4.63,4.33,4.63-1.46,8.19,3.92,7.49,2.58-2.84,10.2-7.86,12.67-7,19.89-6.55,4.19-5.68,2.13-10.43C1532.7,445.15,1528.76,442.45,1525.76,447.94Z" transform="translate(-286.41 -275.97)"></path><path class="cls-20" d="M1530.3,392.76s-14.69-1.16-19.42-9.35-9.14-11.86-11-7.57-1.4,6.18-1.4,6.18-7.58,3.4-4,7.46,3.8.54,12.24,4,12.91,6.54,16.6,12.77,7,.28,9.82-4.1C1536.51,396.93,1536.52,392.15,1530.3,392.76Z" transform="translate(-286.41 -275.97)"></path><path class="cls-20" d="M1592.57,330c-4.66.16-6.19,1.34-6.19,1.34s-6.28-5.45-8.45-.47,1.11,3.67,1.52,12.79-.5,14.46-4.59,20.43,2.72,6.51,7.85,7.18c6.12.8,10.46-1.2,7.29-6.59,0,0-5.12-13.81.31-21.55S1597.23,329.81,1592.57,330Z" transform="translate(-286.41 -275.97)"></path><path class="cls-20" d="M1537.53,419.86s1,3.15-3,3.37-6.27-4.13-9.36,0c-2.58,3.43-.34,12.39,5.69,12.26,3.8-.08,4.17-4.81,6-5.41,3.48-1.14,7,5.38,8,2.6,1.55-4.35-.41-9.66-3.35-12.93C1539.51,417.44,1537.71,417.49,1537.53,419.86Z" transform="translate(-286.41 -275.97)"></path><path class="cls-20" d="M1583.46,400.09s-3.49,1.43-4.18-3,4-7.6-1-10.68c-4.19-2.55-14.16,1-13.35,7.85.51,4.33,5.95,4.23,6.84,6.28,1.68,3.85-5.37,8.58-2.08,9.4,5.13,1.28,11-1.54,14.38-5.26C1586.44,402.08,1586.18,400,1583.46,400.09Z" transform="translate(-286.41 -275.97)"></path><path class="cls-20" d="M1619.94,413.21c-4.1-1.5-6.45,3.4-8.69,3.27-4.19-.24-5.23-8.66-7.45-6.09-3.45,4-3.57,10.48-1.79,15.2,1.24,3.31,3.19,4,4.37,1.55,0,0,.3-3.76,4.55-2.38s5,7,10,3.9C1625.1,426.07,1626.43,415.58,1619.94,413.21Z" transform="translate(-286.41 -275.97)"></path><path class="cls-20" d="M1575.1,428.83c-2.69.45-3.5,1.82-1.82,3.07,0,0,2.8.78,1.13,3.8s-6.05,2.73-4.43,7c1.34,3.54,9.08,6.1,11.83,1.54,1.74-2.88-1.62-5.38-1.19-7.05.8-3.14,7.33-2.68,5.71-4.74C1583.82,429.23,1578.93,428.18,1575.1,428.83Z" transform="translate(-286.41 -275.97)"></path><path class="cls-20" d="M1545.39,356.94c-9.32-7.48-11.72-20.14-11.72-20.14-5.11-5.53-8,1.78-8.65,1.27s-8.38,2-3.16,6.28,14.48,11.44,17.62,22,9,6.45,12.43,2.77S1554.71,364.42,1545.39,356.94Z" transform="translate(-286.41 -275.97)"></path><path class="cls-20" d="M1631.78,336.48c.23-.84-4.74-7.19-7-.83s-5.82,17.52-14.64,24.06-3,10.65,1.64,12.62,5.34,1.05,9.19-10.26,14.94-17.89,14.94-17.89C1639.38,337.49,1631.54,337.32,1631.78,336.48Z" transform="translate(-286.41 -275.97)"></path><path class="cls-20" d="M1680.39,406.3c.78-.37,2.29-8.3-4-5.8s-17,7.16-27.75,4.83-10,4.76-8.42,9.55,2.73,4.7,13.78.15,23.3-.54,23.3-.54C1684.64,412.69,1679.61,406.68,1680.39,406.3Z" transform="translate(-286.41 -275.97)"></path><path class="cls-20" d="M1670.6,464.47c-6.63-1.17-18.23-2.88-26.12-10.51s-11-1.21-12.19,3.68-.16,5.44,11.63,7.39S1664,476.84,1664,476.84c7.16,2.31,6-5.45,6.91-5.35S1677.24,465.63,1670.6,464.47Z" transform="translate(-286.41 -275.97)"></path><path class="cls-20" d="M1598.09,493.77c.42-11-6.44-9-10.87-6.62s-4.16,3.51,2.26,13.59,4.62,22.85,4.62,22.85c3.06,6.88,8.09.87,8.6,1.57s8.58.8,5-4.92S1597.68,504.74,1598.09,493.77Z" transform="translate(-286.41 -275.97)"></path><path class="cls-20" d="M1537.14,470.25c-3.6-2.87-4.49-2.14-11.07,7.83S1507.76,492,1507.76,492c-4.94,5.65,2,7.49,1.58,8.24s2.25,7.88,6,2.29,10.06-15.48,19.76-19.83S1540.73,473.13,1537.14,470.25Z" transform="translate(-286.41 -275.97)"></path><path class="cls-20" d="M1503.88,424.73c-11,4.8-22.92,1.7-22.92,1.7-7.22,2.06-2.37,7.39-3.15,7.77s-2.39,7.84,3.8,5.19,16.85-7.53,27.36-5.91,9.9-5,8.45-9.31S1514.82,419.93,1503.88,424.73Z" transform="translate(-286.41 -275.97)"></path><path class="cls-26" d="M2115.09,356.57a11.23,11.23,0,0,0-12.13-3,11.21,11.21,0,0,0,1.86-11.27l-23.24-59.24a11.18,11.18,0,0,0-20.82,8.16L2084,350.48a11.2,11.2,0,0,0,14.25,6.4,11.21,11.21,0,0,0,.26,14.69l42.7,47.19a11.18,11.18,0,0,0,16.58-15Z" transform="translate(-286.41 -275.97)"></path><path class="cls-31" d="M1149.05,751.71a6.89,6.89,0,0,0-9.09,3.44l-16.09,35.66a6.9,6.9,0,0,0,1.3,7.57,6.89,6.89,0,0,0-6.81,1.72l-27.67,27.66a6.88,6.88,0,0,0,9.72,9.73l27.67-27.67a6.88,6.88,0,0,0,.11-9.6,6.88,6.88,0,0,0,8.21-3.76l16.09-35.66A6.88,6.88,0,0,0,1149.05,751.71Z" transform="translate(-286.41 -275.97)"></path><path class="cls-14" d="M1421.44,291.49,1377.94,319A13,13,0,0,0,1391.82,341l43.5-27.54a13,13,0,1,0-13.88-21.92Z" transform="translate(-286.41 -275.97)"></path><path class="cls-14" d="M2125.86,542.83l-49.37-24a13.83,13.83,0,1,0-12.11,24.87l49.36,24a13.83,13.83,0,1,0,12.12-24.87Z" transform="translate(-286.41 -275.97)"></path><path class="cls-14" d="M1741.26,355.61a9.12,9.12,0,1,0-12.69,13.09l26,25.2a9.12,9.12,0,1,0,12.7-13.08Z" transform="translate(-286.41 -275.97)"></path><path class="cls-32" d="M903.33,1232.19c-14.52-11.85-34.46-15.64-52.81-12.41-31.39,5.53-56.38,29.21-77.92,53.07s-42.72,49.85-71.94,62.76c-22.6,10-50,12.3-66.39,31-17,19.49-15.16,48.83-12.2,74.72q5.94,52.08,12.38,104.12c1.66,13.37,5.6,29.55,18.41,33.07,11.22,3.08,21.9-5.8,30.25-14l78.44-77.13c11.09-10.91,23-23.57,23.17-39.25.23-17.62-14.45-32-17.28-49.41-3.77-23.22,14.9-44.76,36-54.48s44.85-11.36,67.08-18,44.87-20.79,50.69-43.57C925.91,1264.39,917.85,1244,903.33,1232.19Z" transform="translate(-286.41 -275.97)"></path><path class="cls-33" d="M533,1400.29c-30.62-15.06-68.77-10.84-97.33,7.92s-47.59,50.73-54,84.68c-4.05,21.47-2.86,45.34,10,62.9s39.83,25.17,56.73,11.62c20.87-16.75,16-53.11,36-70.91,17.62-15.66,46.08-8.62,64.24,6.4s30.33,36.26,47.52,52.41S639.74,1582,659.94,1570l-59.66-96C582.43,1445.24,563.07,1415.09,533,1400.29Z" transform="translate(-286.41 -275.97)"></path><path class="cls-4" d="M657.92,1530.82c-1.77,6.54-3.45,12.72-4.22,13.77a1.85,1.85,0,0,1,1.4-.59v4.91c2.93,0,3.62-2.56,7.48-16.79,12.86-47.34,52-191.42,199.82-253.67l-1.85-4.53C710.53,1337.08,670.94,1482.9,657.92,1530.82Z" transform="translate(-286.41 -275.97)"></path><path class="cls-4" d="M682.66,1462.77c-2.14-28.3-5.79-77.68-5.79-81.34H672c0,5,5.81,81.69,6.06,85l.24,3.24,79.18-29.37-1.66-4.62Z" transform="translate(-286.41 -275.97)"></path><polygon class="cls-4" points="478.01 1062.38 509.89 1000.95 505.61 998.66 467.36 1072.36 549.82 1036.46 547.91 1031.94 478.01 1062.38"></polygon><path class="cls-4" d="M501,1434.34c-12.3-3.49-23.74-2.26-34,3.72-27.57,16.09-39.57,62.92-44.7,82.92a79.13,79.13,0,0,1-2.51,8.83l1.91,1.49-1.71-1.73,3.42,3.47c1-1,1.6-3.11,3.57-10.83,5-19.4,16.62-64.83,42.43-79.89,9.05-5.29,19.22-6.38,30.24-3.24,58.93,16.76,115.41,96.53,116,97.34l3.94-2.86C617.25,1530.22,561.56,1451.58,501,1434.34Z" transform="translate(-286.41 -275.97)"></path><path class="cls-13" d="M634.16,1039.1l-2.76-6.3c-43.33,19.62-74.86,69.29-80.32,126.57-5.07,53.17,10.33,106.75,26.06,152.16,3.38,9.75,6.89,19.48,10.39,29.21,13.66,37.9,27.79,77.1,33.92,117.36,5.06,33.21,8.13,96.13-28.21,144.54l5.39,4.18c28.06-37.38,38.54-90.58,29.52-149.77-6.24-40.94-20.48-80.46-34.25-118.68-3.5-9.7-7-19.4-10.36-29.13-15.49-44.69-30.66-97.38-25.72-149.21C563.05,1105.18,593,1057.72,634.16,1039.1Z" transform="translate(-286.41 -275.97)"></path><path class="cls-13" d="M613.12,1047.41s53.73-7.26,38.06-23.88S613.12,1047.41,613.12,1047.41Z" transform="translate(-286.41 -275.97)"></path><path class="cls-13" d="M579.8,1083.05s56,14.31,47-8.43S579.8,1083.05,579.8,1083.05Z" transform="translate(-286.41 -275.97)"></path><path class="cls-13" d="M664.23,1467.91c-18.51-15.77-37.6,29.82-37.6,29.82S682.74,1483.67,664.23,1467.91Z" transform="translate(-286.41 -275.97)"></path><path class="cls-13" d="M567.35,1036.88c-20.88,12.32,14.82,46.06,14.82,46.06S588.24,1024.56,567.35,1036.88Z" transform="translate(-286.41 -275.97)"></path><path class="cls-13" d="M582.83,1479.31c-4,24.2,44.39,17.71,44.39,17.71S586.77,1455.1,582.83,1479.31Z" transform="translate(-286.41 -275.97)"></path><path class="cls-13" d="M511.3,1099.92c-16.35,27.76,46.05,43.54,46.05,43.54S527.66,1072.16,511.3,1099.92Z" transform="translate(-286.41 -275.97)"></path><path class="cls-13" d="M562.31,1418.63c-4.95,32,58.73,22.87,58.73,22.87S567.25,1386.66,562.31,1418.63Z" transform="translate(-286.41 -275.97)"></path><path class="cls-13" d="M473,1185.84c-7.57,46.06,84.46,33.85,84.46,33.85S480.59,1139.78,473,1185.84Z" transform="translate(-286.41 -275.97)"></path><path class="cls-13" d="M491.68,1261.4c-7.58,46.07,84.46,33.86,84.46,33.86S499.26,1215.34,491.68,1261.4Z" transform="translate(-286.41 -275.97)"></path><path class="cls-13" d="M520.16,1342.87c-7.58,46.06,84.46,33.85,84.46,33.85S527.74,1296.81,520.16,1342.87Z" transform="translate(-286.41 -275.97)"></path><path class="cls-13" d="M556.34,1219.31s109.47-10.84,78.87-45.69S556.34,1219.31,556.34,1219.31Z" transform="translate(-286.41 -275.97)"></path><path class="cls-13" d="M572.76,1294.88s109.47-10.84,78.87-45.69S572.76,1294.88,572.76,1294.88Z" transform="translate(-286.41 -275.97)"></path><path class="cls-13" d="M662.94,1309c-39.83-23.32-60.76,68.54-60.76,68.54S702.76,1332.37,662.94,1309Z" transform="translate(-286.41 -275.97)"></path><path class="cls-13" d="M554.94,1143s75.92,6.67,59.41-21S554.94,1143,554.94,1143Z" transform="translate(-286.41 -275.97)"></path><path class="cls-13" d="M658.43,1390.13c-29.1-13.15-37,51.69-37,51.69S687.53,1403.28,658.43,1390.13Z" transform="translate(-286.41 -275.97)"></path><path class="cls-34" d="M586.76,1632.06l.06,0H708.17c3.24-8.19,18.51-49.71,22.87-110.6H550.4C551.56,1542.4,557.46,1592.61,586.76,1632.06Z" transform="translate(-286.41 -275.97)"></path><path class="cls-14" d="M2521.39,1628.75H298c-6.43,0-11.63,5.66-11.63,12.64S291.61,1654,298,1654H2521.39c6.42,0,11.63-5.66,11.63-12.64S2527.81,1628.75,2521.39,1628.75Z" transform="translate(-286.41 -275.97)"></path></svg>