<svg id="ffc6eb9a-0ec0-429c-85a8-ff38b44048bf" data-name="Layer 1" width="896" height="400px" viewBox="0 0 896 747.97143" class="Banner1Img" style="width: 400px;height: 400px;padding-top: -40px;margin-top: -120px;"><title>empty_cart</title><path d="M193.634,788.75225c12.42842,23.049,38.806,32.9435,38.806,32.9435s6.22712-27.47543-6.2013-50.52448-38.806-32.9435-38.806-32.9435S181.20559,765.7032,193.634,788.75225Z" transform="translate(-152 -76.01429)" fill="#2f2e41"></path><path d="M202.17653,781.16927c22.43841,13.49969,31.08016,40.3138,31.08016,40.3138s-27.73812,4.92679-50.17653-8.57291S152,772.59636,152,772.59636,179.73811,767.66958,202.17653,781.16927Z" transform="translate(-152 -76.01429)" fill="#57ce93"></path><rect x="452.2485" y="37.40779" width="2" height="18.5" fill="#f2f2f2"></rect><rect x="694.2485" y="622.90779" width="2" height="18.5" fill="#f2f2f2"></rect><rect x="417.2485" y="319.90779" width="140" height="2" fill="#f2f2f2"></rect><rect x="455.2485" y="301.90779" width="2" height="18.5" fill="#f2f2f2"></rect><rect x="516.2485" y="301.90779" width="2" height="18.5" fill="#f2f2f2"></rect><rect x="461.2485" y="560.90779" width="140" height="2" fill="#f2f2f2"></rect><rect x="499.2485" y="542.90779" width="2" height="18.5" fill="#f2f2f2"></rect><rect x="784.2485" y="469.90779" width="2" height="18.5" fill="#f2f2f2"></rect><polygon points="362.06 702.184 125.274 702.184 125.274 700.481 360.356 700.481 360.356 617.861 145.18 617.861 134.727 596.084 136.263 595.347 146.252 616.157 362.06 616.157 362.06 702.184" fill="#2f2e41"></polygon><circle cx="156.78851" cy="726.03301" r="17.88673" fill="#3f3d56"></circle><circle cx="333.10053" cy="726.03301" r="17.88673" fill="#3f3d56"></circle><circle cx="540.92726" cy="346.153" r="11.07274" fill="#3f3d56"></circle><path d="M539.38538,665.76747H273.23673L215.64844,477.531H598.69256l-.34852,1.10753Zm-264.8885-1.7035H538.136l58.23417-184.82951H217.95082Z" transform="translate(-152 -76.01429)" fill="#2f2e41"></path><polygon points="366.61 579.958 132.842 579.958 82.26 413.015 418.701 413.015 418.395 413.998 366.61 579.958" fill="#f2f2f2"></polygon><polygon points="451.465 384.7 449.818 384.263 461.059 341.894 526.448 341.894 526.448 343.598 462.37 343.598 451.465 384.7" fill="#2f2e41"></polygon><rect x="82.2584" y="458.58385" width="345.2931" height="1.7035" fill="#2f2e41"></rect><rect x="101.45894" y="521.34377" width="306.31852" height="1.7035" fill="#2f2e41"></rect><rect x="254.31376" y="402.36843" width="1.7035" height="186.53301" fill="#2f2e41"></rect><rect x="385.55745" y="570.79732" width="186.92877" height="1.70379" transform="translate(-274.73922 936.23495) rotate(-86.24919)" fill="#2f2e41"></rect><rect x="334.45728" y="478.18483" width="1.70379" height="186.92877" transform="translate(-188.46866 -52.99638) rotate(-3.729)" fill="#2f2e41"></rect><rect y="745" width="896" height="2" fill="#2f2e41"></rect><rect x="60.2485" y="352.90779" width="140" height="2" fill="#f2f2f2"></rect><rect x="98.2485" y="334.90779" width="2" height="18.5" fill="#f2f2f2"></rect><rect x="289.2485" y="255.40779" width="2" height="18.5" fill="#f2f2f2"></rect><rect x="12.2485" y="252.90779" width="140" height="2" fill="#f2f2f2"></rect><rect x="112.2485" y="254.40779" width="2" height="18.5" fill="#f2f2f2"></rect></svg>